<svg width="48" height="48" viewBox="0 0 48 48" fill="none" xmlns="http://www.w3.org/2000/svg">
<path d="M43.4213 14.3917H4.83643V42.6666H43.4213V14.3917Z" fill="#ADDEC9"/>
<path d="M14.3151 5.33325H7.82422V15.596H14.3151V5.33325Z" fill="#ADDEC9"/>
<path d="M27.2453 5.33325H20.7544V15.596H27.2453V5.33325Z" fill="#ADDEC9"/>
<path d="M40.2272 5.33325H33.7363V15.596H40.2272V5.33325Z" fill="#ADDEC9"/>
<path d="M7.82441 15.5959C7.82441 17.4285 6.38198 18.8946 4.57895 18.8946C2.77592 18.8946 1.3335 17.4285 1.3335 15.5959" fill="#142328"/>
<path d="M20.7546 15.5959C20.7546 17.4285 19.3122 18.8946 17.5091 18.8946C15.7061 18.8946 14.2637 17.4285 14.2637 15.5959" fill="#142328"/>
<path d="M33.6852 15.5959C33.6852 17.4285 32.2428 18.8946 30.4398 18.8946C28.6368 18.8946 27.1943 17.4285 27.1943 15.5959" fill="#142328"/>
<path d="M46.6154 15.5959C46.6154 17.4285 45.173 18.8946 43.37 18.8946C41.5669 18.8946 40.1245 17.4285 40.1245 15.5959" fill="#142328"/>
<path d="M38.2699 28.0054C38.2699 24.8114 35.7456 22.2457 32.6032 22.2457C29.4608 22.2457 26.9365 24.8114 26.9365 28.0054" fill="#142328"/>
<path d="M7.82441 15.596H1.3335L7.82441 5.33325V15.596Z" fill="#06C167"/>
<path d="M20.7546 5.33325H14.2637V15.596H20.7546V5.33325Z" fill="#06C167"/>
<path d="M33.7365 5.33325H27.2456V15.596H33.7365V5.33325Z" fill="#06C167"/>
<path d="M46.6667 15.596H40.1758V5.33325L46.6667 15.596Z" fill="#06C167"/>
<path d="M14.2639 15.5959C14.2639 17.4285 12.8214 18.8946 11.0184 18.8946C9.21537 18.8946 7.77295 17.4285 7.77295 15.5959" fill="#06C167"/>
<path d="M27.194 15.5959C27.194 17.4285 25.7516 18.8946 23.9486 18.8946C22.1456 18.8946 20.7031 17.4285 20.7031 15.5959" fill="#06C167"/>
<path d="M40.176 15.5959C40.176 17.4285 38.7335 18.8946 36.9305 18.8946C35.1275 18.8946 33.6851 17.4285 33.6851 15.5959" fill="#06C167"/>
<path d="M22.9181 32.7178H9.67871V36.3831H22.9181V32.7178Z" fill="#06C167"/>
<path d="M26.8848 28.0055V42.6666H38.2696V28.0055" fill="#06C167"/>
<path d="M22.9181 24.2354H9.67871V32.7179H22.9181V24.2354Z" fill="white"/>
</svg>
